<svg width="9" height="20" viewBox="0 0 9 20" fill="none" xmlns="http://www.w3.org/2000/svg">
<path d="M0.377861 19.5067C0.125953 19.1779 0 18.7593 0 18.2511C0 17.7429 0.125953 17.3244 0.377861 16.9955L5.73663 10L0.377861 3.00448C0.125953 2.67564 0 2.2571 0 1.74888C0 1.24066 0.125953 0.822122 0.377861 0.493273C0.629769 0.164424 0.950379 0 1.33969 0C1.729 0 2.04961 0.164424 2.30152 0.493273L8.62212 8.74439C8.75952 8.92377 8.85708 9.11809 8.91479 9.32735C8.9725 9.53662 9.00089 9.76084 8.99998 10C8.99998 10.2392 8.97112 10.4634 8.91341 10.6726C8.8557 10.8819 8.7586 11.0762 8.62212 11.2556L2.30152 19.5067C2.04961 19.8356 1.729 20 1.33969 20C0.950379 20 0.629769 19.8356 0.377861 19.5067Z" fill="#9A9EA6"/>
</svg>
