<svg width="10" height="11" viewBox="0 0 10 11" fill="none" xmlns="http://www.w3.org/2000/svg">
<path d="M4.57875 0.916626C2.04875 0.916626 0 2.96996 0 5.49996C0 8.02996 2.04875 10.0833 4.57875 10.0833C7.11333 10.0833 9.16667 8.02996 9.16667 5.49996C9.16667 2.96996 7.11333 0.916626 4.57875 0.916626ZM4.58333 9.16663C2.5575 9.16663 0.916667 7.52579 0.916667 5.49996C0.916667 3.47413 2.5575 1.83329 4.58333 1.83329C6.60917 1.83329 8.25 3.47413 8.25 5.49996C8.25 7.52579 6.60917 9.16663 4.58333 9.16663Z" fill="#67696D"/>
<path d="M4.8125 3.20837H4.125V5.95837L6.53125 7.40212L6.875 6.83837L4.8125 5.61462V3.20837Z" fill="#67696D"/>
</svg>
