<svg width="16" height="16" viewBox="0 0 16 16" fill="none" xmlns="http://www.w3.org/2000/svg">
<path fill-rule="evenodd" clip-rule="evenodd" d="M16 8C16 12.4184 12.4184 16 8 16C3.5816 16 0 12.4184 0 8C0 3.5816 3.5816 0 8 0C12.4184 0 16 3.5816 16 8ZM14.7904 5.6C15.0624 6.37089 15.2009 7.18253 15.2 8H11.8664C11.6177 7.99977 11.3762 8.08364 11.1812 8.238C10.9862 8.39234 10.8479 8.60703 10.788 8.8484V8.8496L10.4324 10.2952C10.3922 10.4599 10.3894 10.6315 10.4242 10.7974C10.4591 10.9633 10.5306 11.1193 10.6336 11.254C10.7372 11.3884 10.8696 11.4976 11.0216 11.5728C11.1736 11.6484 11.3412 11.6876 11.5108 11.6876H11.686L12.082 13.932C10.9216 14.732 9.5152 15.2 8 15.2C6.55854 15.2023 5.14989 14.7699 3.958 13.9592L4.57 10.5252H4.9732C5.19034 10.5254 5.40463 10.4758 5.59962 10.3802C5.79461 10.2847 5.9651 10.1457 6.098 9.974C6.23136 9.80252 6.32405 9.60301 6.36908 9.3905C6.41412 9.17799 6.41033 8.95803 6.358 8.7472L5.8448 6.682L5.8444 6.6808C5.76678 6.37195 5.58845 6.09778 5.3376 5.9016C5.08693 5.70565 4.77777 5.59945 4.4596 5.6H1.2096C2.198 2.8036 4.8652 0.8 8 0.8C8.5376 0.8 9.0616 0.8588 9.566 0.9708L9.3928 1.5376H9.3168C9.17766 1.53771 9.04036 1.56948 8.91531 1.6305C8.79026 1.69152 8.68073 1.78019 8.59501 1.8898C8.5093 1.99941 8.44965 2.12708 8.42057 2.26315C8.3915 2.39923 8.39376 2.54013 8.4272 2.6752C8.43355 2.70098 8.44253 2.72605 8.454 2.75L9.498 4.952C9.55547 5.13983 9.6718 5.30421 9.82981 5.42089C9.98783 5.53757 10.1792 5.60036 10.3756 5.6H14.7904ZM14.4516 4.8C13.6071 3.10233 12.1288 1.80484 10.336 1.1876L10.0712 2.0544C10.0462 2.13633 9.99553 2.20806 9.92669 2.25905C9.85785 2.31003 9.77446 2.33756 9.6888 2.3376H9.3168C9.29012 2.33769 9.26427 2.34684 9.24348 2.36356C9.22269 2.38027 9.20821 2.40356 9.2024 2.4296C9.20056 2.43841 9.19975 2.4474 9.2 2.4564L10.2352 4.6392C10.246 4.6628 10.2552 4.6872 10.2616 4.7124C10.2679 4.73749 10.2825 4.75974 10.3029 4.77562C10.3234 4.79149 10.3485 4.80007 10.3744 4.8H14.4516ZM11.8652 8.8H15.156C14.9603 10.5628 14.1194 12.1909 12.7952 13.3708L12.4156 11.2184C12.3993 11.1258 12.351 11.0419 12.279 10.9814C12.207 10.9209 12.116 10.8877 12.022 10.8876H11.5108C11.4645 10.8876 11.4187 10.877 11.3772 10.8564C11.3344 10.8351 11.2971 10.8043 11.268 10.7664C11.2376 10.727 11.2165 10.6812 11.2064 10.6325C11.1963 10.5838 11.1974 10.5334 11.2096 10.4852L11.5644 9.0416C11.5815 8.97207 11.6212 8.91017 11.6772 8.8656C11.7307 8.82314 11.7969 8.80002 11.8652 8.8ZM0.9784 6.4C0.859502 6.92502 0.799664 7.46169 0.8 8C0.798834 9.02318 1.01628 10.0348 1.43778 10.9671C1.85927 11.8994 2.47509 12.731 3.244 13.406L3.8412 10.0552C3.85765 9.96267 3.90614 9.87889 3.97819 9.81855C4.05023 9.75821 4.14122 9.72516 4.2352 9.7252H4.9732C5.06845 9.72532 5.16245 9.70356 5.24797 9.6616C5.33348 9.61964 5.40821 9.55861 5.4664 9.4832C5.5255 9.40715 5.56655 9.31866 5.58644 9.22442C5.60632 9.13018 5.60453 9.03265 5.5812 8.9392L5.0684 6.8764V6.8756C5.03409 6.73942 4.95542 6.61853 4.8448 6.532C4.73519 6.44625 4.59997 6.39977 4.4608 6.4H0.9784Z" fill="black"/>
</svg>
