<svg width="32" height="26" viewBox="0 0 32 26" fill="none" xmlns="http://www.w3.org/2000/svg">
<path d="M3.2 26C2.32 26 1.5664 25.6815 0.939202 25.0445C0.312002 24.4075 -0.00106395 23.6427 2.71647e-06 22.75V3.25C2.71647e-06 2.35625 0.313603 1.59088 0.940803 0.953877C1.568 0.316877 2.32107 -0.00108057 3.2 2.75891e-06H28.8C29.68 2.75891e-06 30.4336 0.318502 31.0608 0.955502C31.688 1.5925 32.0011 2.35734 32 3.25V22.75C32 23.6437 31.6864 24.4091 31.0592 25.0461C30.432 25.6831 29.6789 26.0011 28.8 26H3.2ZM16 14.625L3.2 6.5V22.75H28.8V6.5L16 14.625ZM16 11.375L28.8 3.25H3.2L16 11.375ZM3.2 6.5V3.25V22.75V6.5Z" fill="#484747"/>
</svg>
