<svg width="48" height="40" viewBox="0 0 48 40" fill="none" xmlns="http://www.w3.org/2000/svg">
<path d="M4.8 39.2C3.48 39.2 2.3496 38.7296 1.4088 37.7888C0.468004 36.848 -0.00159593 35.7184 4.0747e-06 34.4V5.60005C4.0747e-06 4.28005 0.470404 3.14965 1.4112 2.20885C2.352 1.26805 3.4816 0.798453 4.8 0.800053H43.2C44.52 0.800053 45.6504 1.27045 46.5912 2.21125C47.532 3.15205 48.0016 4.28165 48 5.60005V34.4C48 35.72 47.5296 36.8504 46.5888 37.7912C45.648 38.732 44.5184 39.2016 43.2 39.2H4.8ZM24 22.4L43.2 10.4001V5.60005L24 17.6L4.8 5.60005V10.4001L24 22.4Z" fill="#38D1D1"/>
</svg>
