<svg width="48" height="48" viewBox="0 0 48 48" fill="none" xmlns="http://www.w3.org/2000/svg">
<path d="M43.2969 32.7327L36.51 31.9578C35.7119 31.8641 34.903 31.9525 34.144 32.2163C33.385 32.48 32.6957 32.9124 32.1278 33.4809L27.2112 38.3975C19.6258 34.5396 13.4603 28.3741 9.60246 20.7886L14.5457 15.8453C15.6947 14.6963 16.2558 13.0931 16.0688 11.4631L15.2939 4.72955C15.1424 3.42605 14.5169 2.22379 13.5363 1.35166C12.5558 0.479528 11.2888 -0.00155582 9.97654 3.78013e-06H5.35391C2.3345 3.78013e-06 -0.177227 2.51174 0.0098157 5.53117C1.426 28.3505 19.6761 46.574 42.4686 47.9902C45.488 48.1772 47.9997 45.6655 47.9997 42.6461V38.0234C48.0265 35.3246 45.9957 33.0534 43.2969 32.7327Z" fill="#38D1D1"/>
</svg>
